<?xml version="1.0" standalone="no"?>
<!DOCTYPE svg PUBLIC "-//W3C//DTD SVG 20010904//EN"
 "http://www.w3.org/TR/2001/REC-SVG-20010904/DTD/svg10.dtd">
<svg version="1.0" xmlns="http://www.w3.org/2000/svg"
 width="831.000000pt" height="720.000000pt" viewBox="0 0 831.000000 720.000000"
 preserveAspectRatio="xMidYMid meet">

<g transform="translate(0.000000,720.000000) scale(0.100000,-0.100000)"
fill="#000000" stroke="none">
<path d="M3962 6524 c-72 -15 -138 -51 -199 -106 -42 -37 -47 -52 -9 -23 11 8
24 15 29 15 6 0 -9 -13 -32 -28 -75 -50 -161 -133 -182 -174 -25 -49 -18 -60
18 -27 14 13 23 18 19 11 -10 -18 43 -5 67 16 16 15 17 14 11 -1 -5 -15 -3
-16 22 -7 l29 10 -24 -18 c-13 -10 -46 -25 -75 -32 -125 -31 -176 -89 -179
-202 l-2 -63 -48 -25 c-27 -14 -64 -40 -81 -57 -36 -33 -87 -101 -68 -89 8 5
9 -1 1 -24 -13 -35 -23 -41 -14 -7 5 18 4 19 -5 5 -5 -9 -7 -24 -3 -34 6 -16
7 -16 20 2 22 30 15 8 -15 -48 -16 -29 -34 -66 -40 -83 -12 -29 -12 -29 -6 10
3 22 9 45 13 50 5 6 11 20 13 32 5 20 4 21 -21 12 -43 -17 -170 -89 -271 -154
-271 -175 -533 -435 -712 -705 -111 -167 -242 -435 -221 -448 6 -4 186 -29
400 -55 213 -27 390 -50 392 -53 2 -2 -13 -48 -33 -101 -21 -54 -93 -249 -161
-433 -125 -338 -201 -534 -230 -589 -25 -49 -44 -54 -184 -47 -69 3 -196 9
-281 12 l-155 6 -155 121 c-85 66 -168 132 -185 146 -16 14 -23 18 -15 8 21
-27 360 -291 393 -305 31 -13 194 -23 421 -26 l159 -1 2 24 c1 13 9 29 17 35
18 13 84 172 235 566 13 36 33 85 44 110 l19 45 -6 -45 c-4 -25 -8 -56 -9 -70
-4 -36 -24 -130 -30 -139 -2 -5 -7 -27 -10 -51 -3 -23 -8 -47 -12 -53 -3 -6
-8 -25 -9 -41 -2 -17 -5 -57 -8 -88 -3 -32 -10 -67 -16 -78 -6 -11 -8 -25 -4
-31 3 -6 0 -24 -7 -41 -7 -17 -8 -33 -3 -36 11 -8 11 -38 0 -72 -5 -13 -9 -43
-10 -66 -1 -23 -8 -49 -16 -60 -9 -10 -10 -15 -2 -10 21 12 13 -10 -10 -30
-22 -19 -23 -19 -8 1 14 19 14 19 -3 6 -9 -8 -15 -16 -12 -19 3 -3 -2 -14 -12
-24 -9 -10 -12 -18 -7 -18 17 -1 -41 -29 -61 -30 -14 0 -16 -3 -7 -8 8 -6 -7
-13 -43 -21 -54 -12 -206 -10 -407 5 -55 4 -78 3 -78 -5 0 -6 16 -62 36 -124
42 -130 109 -291 166 -394 l40 -73 333 0 333 0 4 122 c3 105 8 130 29 173 13
28 26 52 30 55 11 11 77 135 207 390 145 286 340 652 352 660 4 3 26 27 49 53
40 47 56 53 25 9 -8 -12 -13 -26 -10 -30 3 -5 -10 -32 -29 -61 -19 -29 -49
-80 -65 -114 -17 -34 -30 -58 -30 -53 0 5 -11 -8 -25 -28 -15 -22 -22 -43 -18
-53 6 -16 4 -16 -16 2 l-22 19 6 -27 c6 -22 -9 -61 -78 -200 -47 -94 -117
-237 -156 -317 -40 -80 -99 -183 -131 -230 -71 -101 -94 -162 -94 -250 -1 -70
26 -254 49 -335 8 -27 21 -85 31 -127 23 -105 29 -105 106 15 40 62 91 117
109 117 10 -1 9 -4 -3 -14 -10 -7 -18 -17 -18 -21 0 -4 -11 -21 -25 -37 -34
-40 -124 -226 -131 -270 -11 -65 46 -163 133 -228 98 -75 162 -86 225 -40 32
24 32 25 48 -99 6 -46 18 -94 27 -107 8 -13 12 -27 9 -32 -12 -20 24 -44 113
-76 79 -28 95 -37 106 -62 14 -34 375 -300 428 -315 17 -5 150 -9 293 -9 306
0 287 -7 329 115 16 44 36 102 46 129 l17 49 148 38 c82 20 185 50 229 65 74
27 80 31 83 59 2 16 12 35 22 42 13 9 21 37 30 113 l12 100 25 -20 c74 -58
235 23 318 159 30 50 38 76 49 163 8 56 27 148 42 203 15 55 39 161 55 235 15
74 28 120 28 103 l1 -33 340 0 339 0 70 143 c64 129 171 417 171 459 0 18 -11
23 -75 34 -22 4 -34 9 -26 12 13 4 -66 28 -232 70 -38 9 -66 20 -62 24 4 3
-19 12 -49 19 -31 7 -56 15 -56 19 0 4 -63 23 -139 41 -77 19 -135 37 -129 40
5 3 -12 12 -39 19 -98 26 -137 42 -161 66 -14 13 -29 24 -35 24 -6 0 -7 3 -4
7 4 4 -4 19 -19 34 -14 14 -27 33 -28 40 -4 21 -16 52 -29 74 -40 73 -47 95
-48 160 -1 56 29 165 71 260 10 22 21 51 25 65 4 14 17 52 29 85 13 33 36 101
51 150 29 94 38 120 61 170 7 17 19 53 25 80 7 28 15 55 19 60 4 6 16 39 25
75 10 36 24 76 31 90 7 14 22 58 33 99 26 94 55 137 101 149 37 9 180 -6 302
-31 l68 -15 -26 49 c-84 153 -334 434 -524 586 -108 87 -262 193 -280 193 -5
0 -10 4 -10 9 0 5 -13 14 -29 21 -43 17 -49 50 -13 61 23 7 -63 125 -170 233
-54 55 -97 100 -95 101 1 1 25 5 52 8 43 5 57 1 100 -23 108 -63 105 -61 99
-46 -3 8 -30 31 -60 52 -30 21 -54 39 -54 40 0 2 17 12 38 23 26 14 31 20 17
20 -11 0 -31 -6 -45 -14 -14 -8 -36 -14 -50 -14 -16 0 -7 6 28 18 48 17 118
68 107 79 -2 2 -11 -3 -20 -12 -17 -17 -50 -23 -41 -7 3 4 -17 11 -44 14 -28
3 -74 13 -103 21 -28 8 -64 18 -79 21 -35 7 -37 25 -3 25 36 0 130 37 150 60
17 19 17 19 -16 10 -56 -16 -77 -10 -27 8 l48 17 -103 1 c-56 0 -129 6 -162
13 -89 20 -289 84 -375 120 -41 18 -106 41 -145 52 l-70 19 125 -4 c69 -3 136
-8 150 -11 l25 -6 -25 12 c-92 40 -336 60 -484 39 -38 -6 -72 -8 -75 -5 -10
10 21 23 71 30 26 4 51 11 54 16 8 14 -292 8 -364 -7z m173 -13 c-17 -15 -140
-61 -165 -61 -39 0 -9 20 67 46 71 24 114 31 98 15z m618 -235 c65 -21 117
-40 115 -42 -6 -5 -258 75 -258 82 0 4 6 4 13 2 6 -3 65 -22 130 -42z m67 -86
c0 -5 11 -10 25 -10 14 0 25 -4 25 -10 0 -5 10 -10 23 -10 13 0 27 -4 33 -9 5
-5 20 -11 34 -14 17 -3 12 -5 -15 -5 -42 -2 -156 22 -184 38 -14 7 -13 10 9
19 33 13 50 13 50 1z m250 -60 c11 -7 1 -10 -32 -10 -27 0 -48 4 -48 8 0 12
62 13 80 2z m-285 -20 c63 -15 69 -18 30 -14 -65 7 -168 32 -135 33 14 0 61
-8 105 -19z m-1242 -56 c-16 -26 -16 -26 2 -21 51 16 114 26 150 26 35 -1 37
-2 15 -9 -14 -5 -61 -16 -105 -25 -63 -14 -85 -23 -108 -48 l-28 -30 6 29 c9
41 27 85 32 80 3 -2 0 -14 -6 -25 -19 -34 11 -16 31 19 9 17 20 30 23 30 3 0
-2 -12 -12 -26z m1242 -34 l20 -9 -20 0 c-11 0 -27 4 -35 9 -13 9 -13 10 0 9
8 0 24 -4 35 -9z m72 4 c-3 -3 -12 -4 -19 -1 -8 3 -5 6 6 6 11 1 17 -2 13 -5z
m103 -27 c8 -4 29 -8 45 -11 17 -2 -12 -3 -63 0 -51 3 -102 9 -115 14 -25 10
106 7 133 -3z m-1420 -27 c0 -5 -10 -15 -22 -21 -23 -12 -23 -12 -4 10 21 23
26 26 26 11z m149 -4 c-2 -2 -22 -6 -44 -10 -29 -5 -36 -4 -25 3 13 10 79 16
69 7z m1114 -62 c38 -36 66 -69 62 -72 -4 -4 -12 0 -18 9 -7 9 -36 31 -65 48
-53 34 -65 45 -34 34 13 -5 11 0 -7 20 -48 53 -5 26 62 -39z m-107 -11 c-5 -6
-83 34 -90 46 -3 5 17 -3 44 -17 27 -14 48 -27 46 -29z m-1071 33 c-39 -7 -77
-16 -85 -21 -9 -5 -7 1 4 13 16 19 29 22 85 21 l66 -2 -70 -11z m1280 -106 c3
-5 2 -10 -4 -10 -5 0 -13 5 -16 10 -3 6 -2 10 4 10 5 0 13 -4 16 -10z m94 -70
c6 0 11 -5 11 -10 0 -6 -18 0 -40 12 -22 13 -40 27 -40 31 0 5 13 -1 29 -12
16 -12 34 -21 40 -21z m-1690 -127 c-22 -43 -46 -100 -54 -128 -7 -27 -14 -40
-14 -28 -1 35 28 112 66 176 19 31 36 57 38 57 2 0 -14 -35 -36 -77z m457
-125 c52 -39 123 -108 116 -112 -4 -2 -43 -11 -86 -21 -44 -9 -99 -26 -123
-36 -55 -23 -56 -23 -43 0 5 11 10 36 10 56 0 36 33 113 54 127 19 13 42 9 72
-14z m-492 -175 l-2 -158 8 130 c12 197 25 201 25 7 0 -169 7 -282 20 -314 4
-10 5 -18 2 -18 -3 0 -20 39 -38 88 -31 82 -33 94 -33 227 -1 117 6 195 17
195 1 0 1 -71 1 -157z m1291 57 c-18 -3 -34 -15 -42 -30 -18 -35 -17 -117 1
-127 12 -6 4 -21 -35 -68 -27 -33 -55 -72 -61 -86 -12 -26 -12 -26 -107 -21
-97 5 -115 12 -107 45 2 10 0 14 -7 10 -7 -4 -8 0 -4 11 4 10 3 15 -3 11 -10
-6 -33 29 -23 38 3 3 -8 23 -25 43 -25 31 -29 40 -20 59 9 21 19 23 107 29
156 9 215 20 244 42 14 12 24 24 20 27 -3 4 -7 22 -9 41 l-2 35 51 -26 c52
-27 52 -27 22 -33z m-1404 -15 c-8 -46 -9 -47 -10 -13 -1 34 8 73 15 66 2 -2
-1 -26 -5 -53z m207 -5 c-5 -30 -10 -104 -10 -165 l-2 -110 -9 80 c-10 76 1
218 19 246 11 19 12 4 2 -51z m1608 -40 c26 -9 65 -50 47 -50 -8 0 -83 51 -83
56 0 6 4 5 36 -6z m511 -72 c-3 -8 -6 -5 -6 6 -1 11 2 17 5 13 3 -3 4 -12 1
-19z m-393 -29 c49 -28 46 -34 -4 -9 -22 11 -40 23 -40 25 0 8 8 6 44 -16z
m-479 -74 c-16 -13 -34 -24 -39 -25 -6 0 5 11 24 25 44 32 54 32 15 0z m436
-15 c22 0 48 -81 74 -232 16 -92 16 -98 -1 -135 -46 -96 -170 -179 -285 -189
-77 -8 -193 22 -222 57 -10 11 -21 18 -26 15 -4 -3 -19 7 -32 22 -13 14 -16
20 -6 13 9 -7 17 -9 17 -3 0 13 -25 33 -33 27 -4 -3 -5 -2 -3 1 2 3 -7 31 -21
61 -46 101 -33 266 23 287 27 10 27 1 -1 -39 -38 -57 -36 -132 6 -180 41 -46
78 -65 129 -65 52 0 92 21 126 65 33 44 43 118 21 160 -14 28 -15 28 -21 7 -9
-29 -56 -30 -81 -2 -17 19 -17 21 1 41 11 12 26 18 37 15 18 -4 18 -4 1 16
-19 20 -18 20 21 13 113 -21 185 -102 185 -208 0 -16 4 -26 10 -22 6 3 10 19
10 36 0 22 5 29 19 29 13 0 21 9 26 29 8 39 -28 179 -52 197 -15 12 -11 12 21
-1 21 -8 47 -15 57 -15z m249 -10 c24 -15 7 -19 -20 -5 -15 8 -19 14 -10 14 8
1 22 -3 30 -9z m-1621 -91 c-11 -27 -19 -65 -19 -85 0 -33 24 -99 39 -108 3
-2 6 26 7 62 1 98 42 162 102 162 20 0 22 -3 15 -22 -4 -13 -8 -50 -8 -83 0
-74 25 -113 92 -146 40 -19 52 -21 95 -12 42 8 47 8 35 -4 -12 -12 -12 -19 4
-51 18 -34 18 -37 1 -55 -9 -11 -39 -31 -67 -45 -43 -23 -62 -27 -140 -27
-116 0 -174 25 -245 102 -66 72 -78 112 -55 189 24 83 71 163 101 170 13 3 24
12 24 20 0 11 4 11 19 -2 18 -16 18 -17 0 -65z m1688 19 c-3 -8 -6 -5 -6 6 -1
11 2 17 5 13 3 -3 4 -12 1 -19z m-1222 2 c3 -6 -1 -7 -9 -4 -18 7 -21 14 -7
14 6 0 13 -4 16 -10z m-865 -38 c0 -4 -16 -14 -35 -21 -46 -16 -93 -65 -117
-120 -28 -64 -21 -167 15 -236 30 -60 98 -128 148 -148 55 -22 128 -28 190
-14 l55 12 -26 108 c-15 59 -26 107 -25 107 6 0 129 -126 127 -132 -4 -17 31
-122 61 -184 33 -66 50 -109 52 -127 0 -5 14 -20 30 -34 l30 -26 -30 18 c-16
10 -39 26 -51 36 -11 11 -24 19 -30 19 -10 1 -70 92 -105 158 -18 37 -25 43
-45 38 -69 -18 -155 -17 -211 0 -66 21 -156 101 -188 169 -27 55 -33 182 -11
238 20 54 68 104 120 128 48 22 46 21 46 11z m2157 -114 c95 -103 94 -255 -2
-373 -97 -119 -180 -141 -367 -99 -24 5 -29 1 -48 -37 -12 -23 -29 -49 -36
-57 -8 -7 -14 -17 -14 -22 0 -17 -87 -93 -149 -130 -86 -51 -164 -77 -283 -95
-182 -28 -253 -17 -408 60 -47 23 -119 55 -160 71 -41 16 -83 36 -94 44 -41
33 -74 67 -96 98 -18 27 -21 38 -12 57 16 35 70 72 171 115 50 21 115 56 143
76 67 50 131 138 158 219 20 61 24 65 51 65 48 0 67 -17 84 -72 8 -28 39 -92
69 -142 65 -109 131 -165 233 -196 87 -27 118 -25 220 10 106 37 169 76 229
144 27 29 44 43 41 31 -3 -11 -8 -30 -12 -42 -4 -14 -2 -23 5 -23 10 0 142
259 167 328 l12 33 38 -19 c21 -11 48 -31 60 -44z m-1940 -50 c-3 -8 -6 -5 -6
6 -1 11 2 17 5 13 3 -3 4 -12 1 -19z m74 -135 c13 -16 12 -17 -3 -4 -17 13
-22 21 -14 21 2 0 10 -8 17 -17z m-99 -520 c-5 -10 -12 -52 -15 -93 -6 -84
-14 -132 -28 -167 -23 -60 0 -174 43 -220 12 -13 17 -23 12 -23 -15 0 -47 48
-72 107 -43 101 -17 319 46 396 8 9 17 17 19 17 2 0 0 -8 -5 -17z m1091 -253
c8 -36 11 -66 7 -68 -25 -9 -158 -110 -213 -162 l-63 -59 -84 84 c-54 54 -76
82 -62 78 12 -3 22 -1 22 5 0 13 122 102 177 130 22 11 66 30 98 41 33 12 66
28 75 36 18 18 19 17 43 -85z m9 -247 c20 -18 23 -45 8 -74 -16 -29 -30 -23
-24 10 5 22 1 32 -17 44 -30 21 -59 6 -59 -31 0 -21 -2 -24 -10 -12 -15 23
-12 38 10 60 24 24 67 26 92 3z m-432 -13 c11 -11 20 -30 19 -42 0 -22 -1 -22
-9 -3 -14 36 -37 49 -65 37 -19 -9 -25 -19 -25 -42 0 -18 -4 -29 -10 -25 -19
12 -11 63 12 79 30 21 54 20 78 -4z m319 -359 c14 -8 19 -27 24 -93 4 -46 7
-100 7 -122 0 -35 -2 -38 -22 -32 -73 21 -121 25 -175 15 -70 -13 -109 -32
-145 -72 l-28 -29 0 155 0 155 37 13 c81 26 259 32 302 10z m178 -70 c54 -35
153 -126 153 -141 0 -8 -168 -140 -178 -140 -5 0 -17 12 -29 28 -17 23 -21 49
-27 160 -9 154 -10 152 81 93z m-602 -138 c5 -91 11 -133 22 -145 13 -14 13
-27 3 -89 -23 -134 6 -237 89 -320 67 -66 115 -83 223 -78 83 5 141 29 200 86
l37 36 85 -78 c97 -89 97 -86 15 -158 -98 -86 -216 -127 -364 -127 -154 0
-288 48 -389 141 -114 104 -168 235 -169 409 -1 148 32 251 111 349 33 40 106
101 122 101 4 0 11 -57 15 -127z m1590 -434 c9 -17 15 -33 13 -35 -3 -2 -12
12 -21 31 -21 43 -13 47 8 4z m35 -69 c6 -11 8 -20 6 -20 -3 0 -10 9 -16 20
-6 11 -8 20 -6 20 3 0 10 -9 16 -20z m94 -215 l6 -40 -14 45 c-7 25 -17 54
-20 65 -5 12 -2 10 7 -5 9 -14 18 -43 21 -65z m-1374 -565 c370 -38 370 -38
370 -58 0 -10 -24 -82 -55 -162 -137 -363 -237 -625 -239 -627 -1 -2 -86 -6
-187 -9 l-185 -7 -50 28 c-48 28 -48 28 -27 4 29 -32 45 -76 44 -118 -1 -35
-55 -131 -74 -131 -6 0 -45 23 -86 52 -119 81 -271 190 -271 193 0 2 23 70 51
152 28 81 55 162 60 180 5 17 17 41 27 52 14 18 23 19 55 12 28 -7 37 -6 37 4
0 8 4 16 9 19 13 9 134 -15 160 -31 24 -16 25 -20 6 -110 -7 -30 -5 -33 44
-58 46 -23 61 -25 142 -23 l90 3 35 79 c19 43 33 79 32 81 -3 1 -129 24 -386
70 -74 14 -102 27 -102 50 0 24 42 145 51 145 5 0 121 -16 259 -35 138 -19
252 -35 255 -35 7 0 36 72 32 77 -3 2 -115 18 -251 36 -291 38 -281 32 -246
139 l23 70 41 -6 c23 -3 174 -19 336 -36z m-822 -147 c-28 -54 -57 -105 -64
-113 -24 -25 -17 29 12 90 24 52 78 120 96 120 4 0 -15 -44 -44 -97z m1513
-61 c19 -47 32 -99 36 -143 7 -88 -8 -91 -32 -6 -9 34 -35 105 -56 157 -43
104 -45 146 -3 95 13 -16 38 -63 55 -103z m-314 -374 c-3 -8 -6 -5 -6 6 -1 11
2 17 5 13 3 -3 4 -12 1 -19z m-72 -214 c-31 -87 -60 -175 -65 -194 -12 -49
-40 -113 -46 -107 -3 3 -1 14 5 25 6 12 11 30 11 41 0 12 5 21 10 21 6 0 10 8
10 18 0 10 15 61 34 113 18 52 46 132 61 179 16 47 30 80 32 74 2 -6 -22 -83
-52 -170z"/>
<path d="M4196 4705 c-74 -77 -71 -134 8 -154 24 -6 58 -11 75 -11 26 0 29 3
27 25 -2 14 -14 40 -27 57 -41 55 -48 71 -38 95 12 33 -5 29 -45 -12z"/>
<path d="M4375 4570 c3 -5 13 -10 21 -10 8 0 12 5 9 10 -3 6 -13 10 -21 10 -8
0 -12 -4 -9 -10z"/>
<path d="M4030 4435 c15 -18 115 -49 133 -42 7 3 5 6 -5 6 -10 1 -43 12 -74
26 -66 29 -71 30 -54 10z"/>
<path d="M3910 1066 c0 -3 9 -10 20 -16 11 -6 20 -8 20 -6 0 3 -9 10 -20 16
-11 6 -20 8 -20 6z"/>
<path d="M3754 6474 c-29 -14 -63 -37 -75 -52 l-24 -26 25 17 c14 9 52 32 85
52 70 41 63 46 -11 9z"/>
<path d="M3645 6439 c-41 -23 -115 -113 -149 -183 -25 -50 -39 -96 -45 -147
-6 -40 -8 -75 -7 -77 2 -1 15 17 29 41 14 24 33 49 41 56 8 7 18 27 21 44 4
18 25 65 46 106 28 52 34 69 19 56 -34 -30 -22 1 15 40 19 21 27 34 17 31 -9
-3 -3 5 13 19 32 27 32 31 0 14z"/>
<path d="M3430 5947 c0 -20 4 -38 9 -42 6 -3 7 10 4 32 -8 50 -13 55 -13 10z"/>
<path d="M2582 4138 c-1 -9 -18 -54 -37 -100 -36 -85 -23 -82 21 5 16 31 24
60 21 80 -2 18 -5 25 -5 15z"/>
<path d="M1899 4023 c-5 -16 -12 -34 -14 -40 -3 -8 4 -13 15 -13 13 0 20 7 20
20 0 25 33 39 75 33 17 -2 121 -20 232 -39 111 -18 215 -34 230 -33 24 1 -501
98 -535 99 -7 0 -17 -12 -23 -27z"/>
<path d="M2432 3765 c-17 -37 -14 -45 4 -12 9 16 14 31 11 33 -2 2 -9 -7 -15
-21z"/>
<path d="M2100 3696 c0 -2 7 -7 16 -10 8 -3 12 -2 9 4 -6 10 -25 14 -25 6z"/>
<path d="M1767 3621 c-3 -11 1 -22 8 -24 8 -4 10 3 7 19 -5 29 -8 30 -15 5z"/>
<path d="M1968 3283 c23 -2 61 -2 85 0 23 2 4 4 -43 4 -47 0 -66 -2 -42 -4z"/>
</g>
</svg>
