<svg id="visual" viewBox="0 0 960 540" width="960" height="540" xmlns="http://www.w3.org/2000/svg" xmlns:xlink="http://www.w3.org/1999/xlink" version="1.1"><rect x="0" y="0" width="960" height="540" fill="#001220"></rect><path d="M625 540L639.3 527.2C653.7 514.3 682.3 488.7 677.5 463C672.7 437.3 634.3 411.7 612 386C589.7 360.3 583.3 334.7 579.7 308.8C576 283 575 257 579 231.2C583 205.3 592 179.7 609 154C626 128.3 651 102.7 647.7 77C644.3 51.3 612.7 25.7 596.8 12.8L581 0L960 0L960 12.8C960 25.7 960 51.3 960 77C960 102.7 960 128.3 960 154C960 179.7 960 205.3 960 231.2C960 257 960 283 960 308.8C960 334.7 960 360.3 960 386C960 411.7 960 437.3 960 463C960 488.7 960 514.3 960 527.2L960 540Z" fill="#0066ff"></path><path d="M726 540L732 527.2C738 514.3 750 488.7 736.2 463C722.3 437.3 682.7 411.7 678.5 386C674.3 360.3 705.7 334.7 708 308.8C710.3 283 683.7 257 681.3 231.2C679 205.3 701 179.7 697.2 154C693.3 128.3 663.7 102.7 669.7 77C675.7 51.3 717.3 25.7 738.2 12.8L759 0L960 0L960 12.8C960 25.7 960 51.3 960 77C960 102.7 960 128.3 960 154C960 179.7 960 205.3 960 231.2C960 257 960 283 960 308.8C960 334.7 960 360.3 960 386C960 411.7 960 437.3 960 463C960 488.7 960 514.3 960 527.2L960 540Z" fill="#007aff"></path><path d="M763 540L753.5 527.2C744 514.3 725 488.7 714.8 463C704.7 437.3 703.3 411.7 707 386C710.7 360.3 719.3 334.7 726 308.8C732.7 283 737.3 257 746.7 231.2C756 205.3 770 179.7 774.2 154C778.3 128.3 772.7 102.7 762.8 77C753 51.3 739 25.7 732 12.8L725 0L960 0L960 12.8C960 25.7 960 51.3 960 77C960 102.7 960 128.3 960 154C960 179.7 960 205.3 960 231.2C960 257 960 283 960 308.8C960 334.7 960 360.3 960 386C960 411.7 960 437.3 960 463C960 488.7 960 514.3 960 527.2L960 540Z" fill="#008cff"></path><path d="M841 540L843.7 527.2C846.3 514.3 851.7 488.7 843.8 463C836 437.3 815 411.7 814 386C813 360.3 832 334.7 836.5 308.8C841 283 831 257 818.3 231.2C805.7 205.3 790.3 179.7 790 154C789.7 128.3 804.3 102.7 810.7 77C817 51.3 815 25.7 814 12.8L813 0L960 0L960 12.8C960 25.7 960 51.3 960 77C960 102.7 960 128.3 960 154C960 179.7 960 205.3 960 231.2C960 257 960 283 960 308.8C960 334.7 960 360.3 960 386C960 411.7 960 437.3 960 463C960 488.7 960 514.3 960 527.2L960 540Z" fill="#2b9dfc"></path><path d="M856 540L860.3 527.2C864.7 514.3 873.3 488.7 881.8 463C890.3 437.3 898.7 411.7 893 386C887.3 360.3 867.7 334.7 860.8 308.8C854 283 860 257 862.5 231.2C865 205.3 864 179.7 860.8 154C857.7 128.3 852.3 102.7 853.3 77C854.3 51.3 861.7 25.7 865.3 12.8L869 0L960 0L960 12.8C960 25.7 960 51.3 960 77C960 102.7 960 128.3 960 154C960 179.7 960 205.3 960 231.2C960 257 960 283 960 308.8C960 334.7 960 360.3 960 386C960 411.7 960 437.3 960 463C960 488.7 960 514.3 960 527.2L960 540Z" fill="#4facf7"></path></svg>