<svg id="visual" viewBox="0 0 960 540" width="960" height="540" xmlns="http://www.w3.org/2000/svg" xmlns:xlink="http://www.w3.org/1999/xlink" version="1.1"><rect x="0" y="0" width="960" height="540" fill="#002233"></rect><path d="M0 422L26.7 434.3C53.3 446.7 106.7 471.3 160 474.8C213.3 478.3 266.7 460.7 320 449C373.3 437.3 426.7 431.7 480 421.7C533.3 411.7 586.7 397.3 640 408.2C693.3 419 746.7 455 800 471.3C853.3 487.7 906.7 484.3 933.3 482.7L960 481L960 541L933.3 541C906.7 541 853.3 541 800 541C746.7 541 693.3 541 640 541C586.7 541 533.3 541 480 541C426.7 541 373.3 541 320 541C266.7 541 213.3 541 160 541C106.7 541 53.3 541 26.7 541L0 541Z" fill="#0066FF" stroke-linecap="round" stroke-linejoin="miter"></path></svg>